# xmcd CD database file
#
# Track frame offsets:
#	150
#	22320
#	37457
#	53135
#	64037
#	79667
#	93710
#	103675
#	116115
#	134180
#	144117
#
# Disc length: 2073 seconds
#
# Revision: 0
# Processed by: cddbd v1.5.1PL0 Copyright (c) Steve Scherf et al.
# Submitted via: CDex 1.51
#
DISCID=a808170b
DTITLE=Lonnie Mack - Home At Last
DYEAR=1977
DGENRE=Blues
TTITLE0=Running Wild
TTITLE1=My House
TTITLE2=Funky Country Living
TTITLE3=Lay Some Loving On Me
TTITLE4=Glad That I'm Home
TTITLE5=Love And You And Me
TTITLE6=Britches
TTITLE7=Drive To The Country
TTITLE8=The Other Side
TTITLE9=Give Of Your Love
TTITLE10=Outskirts Of Town
EXTD=YEAR: 1977
EXTT0=
EXTT1=
EXTT2=
EXTT3=
EXTT4=
EXTT5=
EXTT6=
EXTT7=
EXTT8=
EXTT9=
EXTT10=
PLAYORDER=
